<?xml version="1.0" encoding="UTF-8" standalone="no"?>
<!DOCTYPE svg PUBLIC "-//W3C//DTD SVG 1.1//EN" "http://www.w3.org/Graphics/SVG/1.1/DTD/svg11.dtd">
<svg width="100%" height="100%" viewBox="0 0 502 501" version="1.1" xmlns="http://www.w3.org/2000/svg" xmlns:xlink="http://www.w3.org/1999/xlink" xml:space="preserve" xmlns:serif="http://www.serif.com/" style="fill-rule:evenodd;clip-rule:evenodd;stroke-linejoin:round;stroke-miterlimit:2;">
    <path d="M201.036,249.955l-190.792,190.792c-13.659,13.659 -13.659,35.838 0,49.497c13.66,13.66 35.839,13.66 49.498,0l190.792,-190.792l190.827,190.828c13.659,13.659 35.838,13.659 49.498,-0c13.659,-13.659 13.659,-35.838 -0,-49.498l-190.828,-190.827l190.213,-190.213c13.66,-13.659 13.66,-35.838 0,-49.498c-13.659,-13.659 -35.838,-13.659 -49.497,0l-190.213,190.214l-190.213,-190.214c-13.66,-13.659 -35.839,-13.659 -49.498,0c-13.659,13.66 -13.659,35.839 0,49.498l190.213,190.213Z" style="fill:#00232e;"/>
</svg>