<?xml version="1.0" encoding="UTF-8" standalone="no"?>
<!DOCTYPE svg PUBLIC "-//W3C//DTD SVG 1.1//EN" "http://www.w3.org/Graphics/SVG/1.1/DTD/svg11.dtd">
<svg width="100%" height="100%" viewBox="0 0 64 40" version="1.1" xmlns="http://www.w3.org/2000/svg" xmlns:xlink="http://www.w3.org/1999/xlink" xml:space="preserve" xmlns:serif="http://www.serif.com/" style="fill-rule:evenodd;clip-rule:evenodd;stroke-linejoin:round;stroke-miterlimit:2;">
    <g>
        <path d="M12.998,39.698c-1.95,0 -3.809,-0.392 -5.578,-1.178c-1.769,-0.785 -3.308,-1.891 -4.617,-3.317c-1.309,-1.426 -2.243,-3.105 -2.803,-5.037l7.149,-1.895c0.379,1.426 1.124,2.532 2.234,3.317c1.11,0.785 2.315,1.178 3.615,1.178c1.119,-0 2.144,-0.271 3.074,-0.812c0.929,-0.542 1.669,-1.273 2.22,-2.194c0.551,-0.921 0.826,-1.941 0.826,-3.06c-0,-1.679 -0.573,-3.118 -1.72,-4.319c-1.146,-1.2 -2.613,-1.801 -4.4,-1.801c-0.542,0 -1.065,0.077 -1.571,0.23c-0.505,0.154 -0.992,0.366 -1.462,0.637l-3.303,-5.795l12.402,-10.29l0.541,1.57l-18.089,0l0,-6.932l24.372,-0l-0,6.932l-9.64,9.316l-0.055,-2.058c2.239,0.343 4.13,1.123 5.674,2.342c1.543,1.218 2.716,2.717 3.52,4.495c0.803,1.778 1.205,3.669 1.205,5.673c-0,2.455 -0.623,4.662 -1.869,6.621c-1.245,1.959 -2.897,3.511 -4.955,4.658c-2.058,1.146 -4.315,1.719 -6.77,1.719Z" style="fill:#00232e;fill-rule:nonzero;"/>
        <path d="M31.629,38.994l-0,-38.994l12.619,0c0.306,0 0.938,0.009 1.895,0.027c0.957,0.018 1.878,0.081 2.762,0.19c3.141,0.379 5.804,1.471 7.989,3.276c2.184,1.806 3.845,4.098 4.982,6.878c1.138,2.781 1.706,5.822 1.706,9.126c0,3.304 -0.568,6.346 -1.706,9.126c-1.137,2.78 -2.798,5.073 -4.982,6.878c-2.185,1.805 -4.848,2.897 -7.989,3.277c-0.884,0.108 -1.805,0.171 -2.762,0.189c-0.957,0.018 -1.589,0.027 -1.895,0.027l-12.619,0Zm7.474,-6.932l5.145,-0c0.487,-0 1.146,-0.014 1.976,-0.041c0.831,-0.027 1.58,-0.104 2.248,-0.23c1.697,-0.343 3.082,-1.137 4.157,-2.383c1.074,-1.246 1.868,-2.744 2.383,-4.495c0.514,-1.751 0.771,-3.556 0.771,-5.416c0,-1.95 -0.266,-3.8 -0.798,-5.551c-0.533,-1.751 -1.341,-3.232 -2.424,-4.441c-1.083,-1.21 -2.446,-1.977 -4.089,-2.302c-0.668,-0.144 -1.417,-0.226 -2.248,-0.244c-0.83,-0.018 -1.489,-0.027 -1.976,-0.027l-5.145,0l-0,25.13Z" style="fill:#00232e;fill-rule:nonzero;"/>
    </g>
</svg>