<svg width="0" height="0" class="hidden">
    <symbol version="1.1" xmlns="http://www.w3.org/2000/svg" xmlns:xlink="http://www.w3.org/1999/xlink" xml:space="preserve" xmlnsSerif="http://www.serif.com/" viewBox="0 0 50 50" id="icon-youtube">
        <path d="M25,0c13.798,0 25,11.202 25,25c0,13.798 -11.202,25 -25,25c-13.798,0 -25,-11.202 -25,-25c0,-13.798 11.202,-25 25,-25Zm14.28,17.779c-0.342,-1.291 -1.352,-2.307 -2.635,-2.652c-2.324,-0.627 -11.645,-0.627 -11.645,-0.627c0,-0 -9.321,-0 -11.645,0.627c-1.283,0.345 -2.293,1.361 -2.635,2.652c-0.623,2.34 -0.623,7.221 -0.623,7.221c-0,-0 -0,4.881 0.623,7.221c0.342,1.291 1.352,2.307 2.635,2.652c2.324,0.627 11.645,0.627 11.645,0.627c0,-0 9.321,-0 11.645,-0.627c1.283,-0.345 2.293,-1.361 2.635,-2.652c0.623,-2.34 0.623,-7.221 0.623,-7.221c0,-0 0,-4.881 -0.623,-7.221Zm-17.328,11.653l-0,-8.864l7.79,4.432l-7.79,4.432Z"></path>
    </symbol>
    <symbol version="1.1" xmlns="http://www.w3.org/2000/svg" xmlns:xlink="http://www.w3.org/1999/xlink" xml:space="preserve" xmlnsSerif="http://www.serif.com/" viewBox="0 0 50 50" id="icon-facebook">
        <path d="M50,25c0,-13.807 -11.193,-25 -25,-25c-13.807,0 -25,11.193 -25,25c0,12.478 9.142,22.821 21.094,24.696l-0,-17.469l-6.348,-0l0,-7.227l6.348,0l-0,-5.508c-0,-6.265 3.732,-9.726 9.443,-9.726c2.735,-0 5.596,0.488 5.596,0.488l-0,6.152l-3.153,0c-3.105,0 -4.074,1.927 -4.074,3.904l0,4.69l6.934,0l-1.109,7.227l-5.825,-0l0,17.469c11.952,-1.875 21.094,-12.218 21.094,-24.696Z"></path>
    </symbol>
    <symbol version="1.1" xmlns="http://www.w3.org/2000/svg" xmlns:xlink="http://www.w3.org/1999/xlink" xml:space="preserve" xmlnsSerif="http://www.serif.com/" viewBox="0 0 50 50" id="icon-instagram">
        <path d="M25,-0c13.798,-0 25,11.202 25,25c0,13.798 -11.202,25 -25,25c-13.798,-0 -25,-11.202 -25,-25c0,-13.798 11.202,-25 25,-25Zm-6.219,10.09c-1.597,0.075 -2.688,0.33 -3.642,0.705c-0.987,0.385 -1.824,0.901 -2.656,1.736c-0.833,0.836 -1.345,1.673 -1.727,2.662c-0.37,0.956 -0.62,2.047 -0.691,3.646c-0.07,1.598 -0.086,2.112 -0.078,6.19c0.008,4.077 0.026,4.588 0.103,6.19c0.076,1.598 0.33,2.688 0.705,3.642c0.386,0.987 0.901,1.824 1.737,2.657c0.836,0.832 1.672,1.344 2.663,1.726c0.955,0.369 2.047,0.621 3.646,0.691c1.598,0.07 2.112,0.086 6.189,0.078c4.076,-0.007 4.589,-0.026 6.191,-0.101c1.601,-0.076 2.686,-0.332 3.641,-0.705c0.987,-0.386 1.824,-0.901 2.656,-1.737c0.832,-0.836 1.344,-1.674 1.726,-2.663c0.37,-0.955 0.621,-2.048 0.691,-3.645c0.07,-1.602 0.086,-2.114 0.078,-6.191c-0.008,-4.077 -0.026,-4.588 -0.102,-6.189c-0.076,-1.601 -0.33,-2.689 -0.705,-3.643c-0.386,-0.987 -0.901,-1.823 -1.736,-2.657c-0.835,-0.833 -1.674,-1.345 -2.663,-1.726c-0.955,-0.369 -2.047,-0.621 -3.645,-0.69c-1.598,-0.069 -2.113,-0.087 -6.191,-0.079c-4.077,0.007 -4.588,0.025 -6.19,0.103Zm0.176,27.144c-1.464,-0.064 -2.259,-0.307 -2.789,-0.511c-0.701,-0.27 -1.201,-0.597 -1.729,-1.12c-0.528,-0.522 -0.852,-1.024 -1.126,-1.724c-0.206,-0.53 -0.453,-1.324 -0.522,-2.788c-0.074,-1.582 -0.09,-2.057 -0.099,-6.066c-0.008,-4.009 0.007,-4.483 0.076,-6.066c0.063,-1.463 0.307,-2.259 0.511,-2.788c0.27,-0.702 0.596,-1.201 1.12,-1.729c0.524,-0.527 1.024,-0.852 1.724,-1.126c0.529,-0.207 1.323,-0.453 2.787,-0.522c1.583,-0.075 2.058,-0.09 6.066,-0.099c4.008,-0.009 4.484,0.006 6.068,0.076c1.463,0.064 2.259,0.306 2.787,0.511c0.702,0.27 1.202,0.594 1.729,1.119c0.528,0.525 0.853,1.023 1.127,1.726c0.207,0.527 0.453,1.321 0.522,2.785c0.075,1.584 0.092,2.058 0.099,6.066c0.008,4.008 -0.006,4.484 -0.076,6.066c-0.064,1.464 -0.306,2.26 -0.51,2.79c-0.271,0.701 -0.596,1.201 -1.121,1.729c-0.524,0.527 -1.024,0.852 -1.724,1.126c-0.529,0.206 -1.324,0.452 -2.786,0.522c-1.584,0.074 -2.058,0.09 -6.068,0.099c-4.009,0.008 -4.482,-0.008 -6.066,-0.076l-0,-0Zm-1.667,-12.219c0.009,4.258 3.467,7.702 7.725,7.694c4.257,-0.008 7.704,-3.466 7.695,-7.724c-0.008,-4.258 -3.467,-7.703 -7.725,-7.695c-4.258,0.008 -7.703,3.467 -7.695,7.725Zm2.705,-0.005c0,-0.004 0,-0.007 0,-0.01c0,-2.746 2.259,-5.005 5.005,-5.005c2.746,-0 5.005,2.259 5.005,5.005c0,2.742 -2.253,4.999 -4.995,5.005c-0.003,-0 -0.007,-0 -0.01,-0c-2.742,-0 -5,-2.254 -5.005,-4.995Zm11.203,-8.035c0.001,0.987 0.814,1.799 1.801,1.799c0.989,-0 1.802,-0.814 1.802,-1.802c0,-0.989 -0.813,-1.802 -1.802,-1.802c-0.001,0 -0.002,0 -0.003,0c-0.988,0.002 -1.8,0.817 -1.798,1.805Z"></path>
    </symbol>
    <symbol version="1.1" xmlns="http://www.w3.org/2000/svg" xmlns:xlink="http://www.w3.org/1999/xlink" xml:space="preserve" xmlnsSerif="http://www.serif.com/" viewBox="0 0 50 51" id="icon-pinterest">
        <path d="M24.99,-0c-13.822,-0 -24.99,11.189 -24.99,24.99c0,10.592 6.582,19.642 15.878,23.282c-0.226,-1.974 -0.411,-5.018 0.082,-7.178c0.453,-1.954 2.921,-12.423 2.921,-12.423c0,0 -0.74,-1.501 -0.74,-3.702c-0,-3.476 2.015,-6.067 4.525,-6.067c2.139,-0 3.167,1.604 3.167,3.517c-0,2.139 -1.358,5.347 -2.077,8.33c-0.597,2.488 1.254,4.525 3.702,4.525c4.442,-0 7.857,-4.69 7.857,-11.436c-0,-5.985 -4.299,-10.16 -10.449,-10.16c-7.116,-0 -11.291,5.327 -11.291,10.839c-0,2.139 0.822,4.442 1.851,5.697c0.205,0.247 0.226,0.473 0.164,0.72c-0.185,0.781 -0.617,2.488 -0.699,2.838c-0.103,0.453 -0.37,0.555 -0.843,0.329c-3.085,-1.481 -5.019,-6.047 -5.019,-9.708c0,-7.877 5.718,-15.117 16.516,-15.117c8.659,0 15.405,6.17 15.405,14.439c0,8.617 -5.43,15.549 -12.957,15.549c-2.53,-0 -4.916,-1.317 -5.718,-2.88c-0,0 -1.255,4.772 -1.563,5.944c-0.556,2.18 -2.078,4.895 -3.106,6.561c2.345,0.72 4.813,1.111 7.404,1.111c13.801,0 24.99,-11.189 24.99,-24.99c-0.021,-13.821 -11.209,-25.01 -25.01,-25.01Z"></path>
    </symbol>
    <symbol version="1.1" xmlns="http://www.w3.org/2000/svg" xmlns:xlink="http://www.w3.org/1999/xlink" xml:space="preserve" xmlnsSerif="http://www.serif.com/" viewBox="0 0 50 50" id="icon-twitter">
        <path d="M25,0c13.798,0 25,11.202 25,25c0,13.798 -11.202,25 -25,25c-13.798,0 -25,-11.202 -25,-25c0,-13.798 11.202,-25 25,-25Zm-4.575,38.188c11.088,-0.001 17.15,-9.188 17.15,-17.151c0,-0.262 0,-0.524 -0.013,-0.774c1.175,-0.851 2.2,-1.913 3.013,-3.125c-1.075,0.475 -2.237,0.8 -3.462,0.95c1.25,-0.75 2.2,-1.925 2.65,-3.338c-1.163,0.688 -2.45,1.188 -3.825,1.463c-1.1,-1.175 -2.663,-1.9 -4.4,-1.9c-3.325,-0 -6.025,2.7 -6.025,6.025c-0,0.475 0.05,0.937 0.162,1.375c-5.012,-0.25 -9.45,-2.65 -12.425,-6.3c-0.512,0.887 -0.812,1.925 -0.812,3.024c-0,2.088 1.062,3.938 2.687,5.013c-0.987,-0.025 -1.912,-0.3 -2.725,-0.75l0,0.075c0,2.925 2.075,5.35 4.838,5.912c-0.5,0.138 -1.038,0.213 -1.588,0.213c-0.387,-0 -0.762,-0.038 -1.137,-0.113c0.762,2.4 2.987,4.138 5.625,4.188c-2.063,1.612 -4.663,2.575 -7.488,2.575c-0.487,-0 -0.962,-0.025 -1.437,-0.088c2.637,1.725 5.812,2.725 9.212,2.725Z"></path>
    </symbol>
</svg>