<svg width="0" height="0" class="hidden">
    <symbol version="1.1" xmlns="http://www.w3.org/2000/svg" xmlns:xlink="http://www.w3.org/1999/xlink" xml:space="preserve" xmlnsSerif="http://www.serif.com/" viewBox="0 0 140 40" id="me3d-logo">
    <g>
        <path d="M35.257,38.994l0,-17.276c0,-1.932 -0.456,-3.435 -1.367,-4.509c-0.912,-1.074 -2.171,-1.611 -3.778,-1.611c-1.029,-0 -1.922,0.239 -2.681,0.717c-0.758,0.479 -1.349,1.147 -1.773,2.004c-0.425,0.858 -0.637,1.846 -0.637,2.965l-3.087,-2.058c0,-2.004 0.474,-3.773 1.422,-5.307c0.948,-1.535 2.22,-2.731 3.818,-3.588c1.598,-0.858 3.371,-1.287 5.321,-1.287c3.34,0 5.863,0.989 7.569,2.966c1.706,1.976 2.559,4.563 2.559,7.758l-0,19.226l-7.366,0Zm-35.257,0l-0,-29.245l6.499,-0l0,9.694l0.921,-0l-0,19.551l-7.42,0Zm17.656,0l-0,-17.276c-0,-1.932 -0.456,-3.435 -1.368,-4.509c-0.911,-1.074 -2.171,-1.611 -3.777,-1.611c-1.535,-0 -2.767,0.528 -3.697,1.584c-0.929,1.056 -1.394,2.423 -1.394,4.102l-3.087,-2.166c-0,-1.914 0.478,-3.629 1.435,-5.145c0.957,-1.517 2.243,-2.717 3.859,-3.602c1.615,-0.884 3.425,-1.327 5.429,-1.327c2.293,0 4.175,0.488 5.646,1.463c1.471,0.975 2.559,2.274 3.263,3.899c0.704,1.625 1.056,3.412 1.056,5.362l0,19.226l-7.365,0Z" style="fill-rule:nonzero;"/>
        <path d="M60.712,39.807c-2.997,-0 -5.637,-0.646 -7.921,-1.937c-2.284,-1.29 -4.071,-3.069 -5.362,-5.334c-1.29,-2.266 -1.936,-4.861 -1.936,-7.786c0,-3.195 0.632,-5.975 1.896,-8.34c1.263,-2.365 3.006,-4.202 5.226,-5.511c2.221,-1.308 4.775,-1.963 7.664,-1.963c3.069,0 5.677,0.722 7.825,2.167c2.149,1.444 3.737,3.475 4.766,6.092c1.029,2.618 1.39,5.696 1.084,9.234l-7.285,0l0,-2.708c0,-2.978 -0.474,-5.122 -1.421,-6.431c-0.948,-1.309 -2.496,-1.963 -4.645,-1.963c-2.509,-0 -4.355,0.763 -5.537,2.288c-1.183,1.526 -1.774,3.778 -1.774,6.756c0,2.726 0.591,4.834 1.774,6.323c1.182,1.49 2.92,2.234 5.213,2.234c1.444,0 2.68,-0.315 3.709,-0.947c1.029,-0.632 1.815,-1.544 2.356,-2.735l7.366,2.112c-1.101,2.672 -2.839,4.748 -5.213,6.228c-2.374,1.48 -4.969,2.221 -7.785,2.221Zm-9.695,-13.378l0,-5.47l19.389,0l0,5.47l-19.389,0Z" style="fill-rule:nonzero;"/>
        <path d="M89.416,39.698c-1.95,0 -3.809,-0.392 -5.578,-1.178c-1.77,-0.785 -3.309,-1.891 -4.617,-3.317c-1.309,-1.426 -2.244,-3.105 -2.803,-5.037l7.149,-1.895c0.379,1.426 1.124,2.532 2.234,3.317c1.11,0.785 2.315,1.178 3.615,1.178c1.119,-0 2.144,-0.271 3.073,-0.812c0.93,-0.542 1.67,-1.273 2.221,-2.194c0.55,-0.921 0.826,-1.941 0.826,-3.06c-0,-1.679 -0.573,-3.118 -1.72,-4.319c-1.146,-1.2 -2.613,-1.801 -4.4,-1.801c-0.542,0 -1.065,0.077 -1.571,0.23c-0.505,0.154 -0.993,0.366 -1.462,0.637l-3.304,-5.795l12.403,-10.29l0.541,1.57l-18.089,0l0,-6.932l24.372,-0l-0,6.932l-9.641,9.316l-0.054,-2.058c2.239,0.343 4.13,1.123 5.673,2.342c1.544,1.218 2.717,2.717 3.521,4.495c0.803,1.778 1.205,3.669 1.205,5.673c-0,2.455 -0.623,4.662 -1.869,6.621c-1.245,1.959 -2.897,3.511 -4.955,4.658c-2.058,1.146 -4.315,1.719 -6.77,1.719Z" style="fill-rule:nonzero;"/>
        <path d="M108.046,38.994l0,-38.994l12.619,0c0.307,0 0.939,0.009 1.896,0.027c0.957,0.018 1.877,0.081 2.762,0.19c3.141,0.379 5.804,1.471 7.988,3.276c2.185,1.806 3.846,4.098 4.983,6.878c1.137,2.781 1.706,5.822 1.706,9.126c0,3.304 -0.569,6.346 -1.706,9.126c-1.137,2.78 -2.798,5.073 -4.983,6.878c-2.184,1.805 -4.847,2.897 -7.988,3.277c-0.885,0.108 -1.805,0.171 -2.762,0.189c-0.957,0.018 -1.589,0.027 -1.896,0.027l-12.619,0Zm7.474,-6.932l5.145,-0c0.488,-0 1.147,-0.014 1.977,-0.041c0.831,-0.027 1.58,-0.104 2.248,-0.23c1.697,-0.343 3.082,-1.137 4.156,-2.383c1.075,-1.246 1.869,-2.744 2.383,-4.495c0.515,-1.751 0.772,-3.556 0.772,-5.416c0,-1.95 -0.266,-3.8 -0.799,-5.551c-0.532,-1.751 -1.34,-3.232 -2.423,-4.441c-1.083,-1.21 -2.446,-1.977 -4.089,-2.302c-0.668,-0.144 -1.417,-0.226 -2.248,-0.244c-0.83,-0.018 -1.489,-0.027 -1.977,-0.027l-5.145,0l0,25.13Z" style="fill-rule:nonzero;"/>
    </g>
</svg>