<?xml version="1.0" encoding="UTF-8" standalone="no"?>
<!DOCTYPE svg PUBLIC "-//W3C//DTD SVG 1.1//EN" "http://www.w3.org/Graphics/SVG/1.1/DTD/svg11.dtd">
<svg width="100%" height="100%" viewBox="0 0 500 500" version="1.1" xmlns="http://www.w3.org/2000/svg" xmlns:xlink="http://www.w3.org/1999/xlink" xml:space="preserve" xmlns:serif="http://www.serif.com/" style="fill-rule:evenodd;clip-rule:evenodd;stroke-linejoin:round;stroke-miterlimit:2;">
    <g>
        <path d="M499.591,35c-0,-19.317 -15.683,-35 -35,-35l-429.591,0c-19.317,0 -35,15.683 -35,35c0,19.317 15.683,35 35,35l429.591,0c19.317,0 35,-15.683 35,-35Z" style="fill:#00232e;"/>
        <path d="M500,249.59c0,-19.317 -15.683,-35 -35,-35l-429.591,0c-19.317,0 -35,15.683 -35,35c0,19.317 15.683,35 35,35l429.591,0c19.317,0 35,-15.683 35,-35Z" style="fill:#00232e;"/>
        <path d="M500,465c0,-19.317 -15.683,-35 -35,-35l-429.591,0c-19.317,0 -35,15.683 -35,35c0,19.317 15.683,35 35,35l429.591,0c19.317,0 35,-15.683 35,-35Z" style="fill:#00232e;"/>
    </g>
</svg>